<svg xmlns="http://www.w3.org/2000/svg" xmlns:xlink="http://www.w3.org/1999/xlink" width="500" zoomAndPan="magnify" viewBox="0 0 375 187.499995" height="250" preserveAspectRatio="xMidYMid meet" version="1.0"><defs><g/><clipPath id="a90fab823d"><path d="M 20 52.734375 L 95 52.734375 L 95 134.617188 L 20 134.617188 Z M 20 52.734375 " clip-rule="nonzero"/></clipPath><clipPath id="ab4fcb3f26"><path d="M 31 70.542969 L 65 70.542969 L 65 90 L 31 90 Z M 31 70.542969 " clip-rule="nonzero"/></clipPath><clipPath id="f9e7b9aaa5"><path d="M 33 100 L 63 100 L 63 106.023438 L 33 106.023438 Z M 33 100 " clip-rule="nonzero"/></clipPath><clipPath id="510e8bb44b"><path d="M 70 78 L 83.730469 78 L 83.730469 106.023438 L 70 106.023438 Z M 70 78 " clip-rule="nonzero"/></clipPath></defs><g fill="#005be1" fill-opacity="1"><g transform="translate(98.773711, 127.05039)"><g><path d="M 5.875 0 L 5.875 -61.875 L 47.1875 -61.875 L 56.5 -52.546875 L 56.5 -37.6875 L 52.296875 -33.40625 L 58.9375 -27.203125 L 58.9375 -9.3125 L 49.609375 0 Z M 21.578125 -37.859375 L 38.53125 -37.859375 L 41.46875 -40.796875 L 41.46875 -47.015625 L 38.53125 -49.953125 L 21.578125 -49.953125 Z M 21.578125 -11.921875 L 40.296875 -11.921875 L 43.234375 -14.859375 L 43.234375 -24.015625 L 40.296875 -26.953125 L 21.578125 -26.953125 Z M 21.578125 -11.921875 "/></g></g></g><g fill="#005be1" fill-opacity="1"><g transform="translate(161.475066, 127.05039)"><g><path d="M 5.453125 -48.6875 L 5.453125 -60.453125 L 21.15625 -60.453125 L 21.15625 -48.6875 Z M 5.453125 0 L 5.453125 -43.90625 L 21.15625 -43.90625 L 21.15625 0 Z M 5.453125 0 "/></g></g></g><g fill="#005be1" fill-opacity="1"><g transform="translate(188.083276, 127.05039)"><g><path d="M 3.78125 0 L 3.78125 -10.40625 L 24.4375 -33.15625 L 5.703125 -33.15625 L 5.703125 -43.828125 L 45.59375 -43.828125 L 45.59375 -33.15625 L 25.109375 -10.75 L 46.265625 -10.75 L 46.265625 0 Z M 3.78125 0 "/></g></g></g><g fill="#005be1" fill-opacity="1"><g transform="translate(238.529745, 127.05039)"><g/></g></g><g fill="#005be1" fill-opacity="1"><g transform="translate(259.178381, 127.05039)"><g><path d="M 0 0 L 18.140625 -61.875 L 43.65625 -61.875 L 61.796875 0 L 45.171875 0 L 42.0625 -12.34375 L 19.734375 -12.34375 L 16.625 0 Z M 22.828125 -24.4375 L 38.953125 -24.4375 L 32.40625 -50.03125 L 29.390625 -50.03125 Z M 22.828125 -24.4375 "/></g></g></g><g fill="#005be1" fill-opacity="1"><g transform="translate(320.956439, 127.05039)"><g><path d="M 3.359375 0 L 3.359375 -11.84375 L 10.25 -11.84375 L 10.078125 -50.03125 L 3.359375 -50.03125 L 3.359375 -61.875 L 31.90625 -61.875 L 31.90625 -50.03125 L 25.109375 -50.03125 L 24.9375 -11.84375 L 31.90625 -11.84375 L 31.90625 0 Z M 3.359375 0 "/></g></g></g><g clip-path="url(#a90fab823d)"><path fill="#005be1" d="M 57.464844 134.238281 L 57.136719 134.140625 C 46.96875 130.964844 38.769531 125.308594 32.726562 117.339844 C 27.917969 110.984375 24.480469 103.144531 22.523438 94.066406 C 19.199219 78.667969 21.234375 65.191406 21.332031 64.621094 L 21.429688 63.953125 L 57.449219 52.753906 L 93.464844 63.953125 L 93.5625 64.621094 C 93.644531 65.191406 95.679688 78.667969 92.371094 94.066406 C 90.414062 103.144531 86.976562 110.984375 82.167969 117.339844 C 76.140625 125.308594 67.925781 130.964844 57.757812 134.140625 Z M 23.371094 65.597656 C 22.996094 68.5 21.789062 80.523438 24.640625 93.675781 C 26.53125 102.445312 29.839844 109.972656 34.46875 116.070312 C 40.15625 123.582031 47.898438 128.941406 57.464844 131.992188 C 67.046875 128.925781 74.789062 123.566406 80.476562 116.035156 C 85.101562 109.925781 88.394531 102.378906 90.285156 93.613281 C 93.121094 80.476562 91.914062 68.480469 91.539062 65.597656 L 57.449219 55.003906 Z M 23.371094 65.597656 " fill-opacity="1" fill-rule="nonzero"/></g><g clip-path="url(#ab4fcb3f26)"><path fill="#005be1" d="M 63.339844 70.519531 L 32.65625 70.519531 C 31.769531 70.519531 31.046875 71.242188 31.046875 72.128906 L 31.046875 89.757812 L 64.953125 89.757812 L 64.953125 72.128906 C 64.953125 71.242188 64.234375 70.519531 63.339844 70.519531 Z M 62.820312 88.277344 L 33.179688 88.277344 L 33.179688 73.089844 L 62.820312 73.089844 L 62.820312 88.277344 " fill-opacity="1" fill-rule="nonzero"/></g><path fill="#005be1" d="M 31.046875 97.300781 C 31.046875 98.1875 31.769531 98.910156 32.65625 98.910156 L 63.339844 98.910156 C 64.234375 98.910156 64.953125 98.1875 64.953125 97.300781 L 64.953125 91.320312 L 31.046875 91.320312 Z M 48 92.957031 C 49.191406 92.957031 50.15625 93.921875 50.15625 95.113281 C 50.15625 96.308594 49.191406 97.273438 48 97.273438 C 46.808594 97.273438 45.839844 96.308594 45.839844 95.113281 C 45.839844 93.921875 46.808594 92.957031 48 92.957031 " fill-opacity="1" fill-rule="nonzero"/><g clip-path="url(#f9e7b9aaa5)"><path fill="#005be1" d="M 61.882812 104.164062 L 55.085938 104.164062 C 54.359375 104.164062 53.773438 103.578125 53.773438 102.851562 L 53.773438 100.628906 L 42.226562 100.628906 L 42.226562 102.851562 C 42.226562 103.578125 41.636719 104.164062 40.914062 104.164062 L 34.113281 104.164062 C 32.875 104.164062 32.875 106.035156 34.113281 106.035156 L 61.882812 106.035156 C 62.402344 106.035156 62.820312 105.617188 62.820312 105.101562 C 62.820312 104.585938 62.402344 104.164062 61.882812 104.164062 " fill-opacity="1" fill-rule="nonzero"/></g><g clip-path="url(#510e8bb44b)"><path fill="#0cc0df" d="M 82.707031 78.851562 L 71.289062 78.851562 C 70.660156 78.851562 70.152344 79.359375 70.152344 79.984375 L 70.152344 104.902344 C 70.152344 105.527344 70.660156 106.035156 71.289062 106.035156 L 82.707031 106.035156 C 83.332031 106.035156 83.839844 105.527344 83.839844 104.902344 L 83.839844 79.984375 C 83.839844 79.359375 83.332031 78.851562 82.707031 78.851562 Z M 72.339844 79.867188 L 81.210938 79.867188 C 82.015625 79.867188 82.574219 80.894531 81.652344 81.703125 L 72.78125 81.703125 C 71.984375 81.703125 71.417969 80.675781 72.339844 79.867188 Z M 79.910156 90.003906 C 79.125 90.003906 78.496094 90.140625 78.496094 89.480469 C 78.496094 89.207031 78.710938 88.992188 78.980469 88.992188 L 79.910156 88.992188 C 80.546875 88.992188 80.5625 90.003906 79.910156 90.003906 Z M 77.460938 90.003906 C 76.675781 90.003906 76.046875 90.140625 76.046875 89.480469 C 76.046875 89.207031 76.265625 88.992188 76.53125 88.992188 L 77.460938 88.992188 C 78.097656 88.992188 78.117188 90.003906 77.460938 90.003906 Z M 75.015625 90.003906 C 74.230469 90.003906 73.601562 90.140625 73.601562 89.480469 C 73.601562 89.207031 73.816406 88.992188 74.085938 88.992188 L 75.015625 88.992188 C 75.652344 88.992188 75.667969 90.003906 75.015625 90.003906 Z M 75.953125 94.15625 C 75.953125 92.773438 78.042969 92.773438 78.042969 94.15625 C 78.042969 95.535156 75.953125 95.535156 75.953125 94.15625 Z M 81.683594 92.507812 L 72.316406 92.507812 L 71.082031 90.859375 L 82.914062 90.859375 L 81.683594 92.507812 " fill-opacity="1" fill-rule="nonzero"/></g></svg>